<svg width="292" height="273" viewBox="0 0 292 273" fill="none" xmlns="http://www.w3.org/2000/svg">
<path d="M29.3588 19.8327L29.3589 19.8327C40.2379 8.87959 57.8763 8.87959 68.7553 19.8327L110.007 61.3648L70.6101 101.03L29.3589 59.4974C24.1346 54.2375 21.1996 47.1036 21.1996 39.665C21.1996 32.2265 24.1346 25.0926 29.3588 19.8327Z" fill="#FF7A7A"/>
<path d="M70.6841 101.029L31.2876 61.3646L72.5389 19.8325C77.7632 14.5726 84.8489 11.6176 92.2371 11.6176C99.6254 11.6176 106.711 14.5726 111.935 19.8325L111.935 19.8325C117.16 25.0923 120.095 32.2262 120.095 39.6648C120.095 47.1034 117.16 54.2373 111.935 59.4971L70.6841 101.029L70.6841 101.029Z" fill="#FF7A7A"/>
<path d="M70.6841 101.029L111.935 59.4967C117.16 54.2368 120.095 47.1029 120.095 39.6644C120.095 32.2258 117.16 25.0919 111.935 19.832" stroke="#AD0C03"/>
<rect x="119.904" y="188.631" width="34.9003" height="7.56557" fill="black"/>
<path d="M137.354 193.108C137.734 193.108 138.043 192.797 138.043 192.414C138.043 192.03 137.734 191.72 137.354 191.72C136.973 191.72 136.665 192.03 136.665 192.414C136.665 192.797 136.973 193.108 137.354 193.108Z" fill="black"/>
<rect x="144.532" y="188.631" width="34.9003" height="7.56557" fill="black"/>
<path d="M161.982 193.108C162.362 193.108 162.671 192.797 162.671 192.414C162.671 192.03 162.362 191.72 161.982 191.72C161.601 191.72 161.293 192.03 161.293 192.414C161.293 192.797 161.601 193.108 161.982 193.108Z" fill="black"/>
<rect x="169.16" y="188.631" width="34.9003" height="7.56557" fill="black"/>
<path d="M193.788 272.161V171.442L186.61 167.27L179.432 171.442" stroke="black" stroke-width="1.5"/>
<path d="M186.61 193.108C186.99 193.108 187.299 192.797 187.299 192.414C187.299 192.03 186.99 191.72 186.61 191.72C186.229 191.72 185.921 192.03 185.921 192.414C185.921 192.797 186.229 193.108 186.61 193.108Z" fill="black"/>
<path d="M186.61 243.293C186.99 243.293 187.299 242.982 187.299 242.599C187.299 242.216 186.99 241.905 186.61 241.905C186.229 241.905 185.921 242.216 185.921 242.599C185.921 242.982 186.229 243.293 186.61 243.293Z" fill="black"/>
<path d="M18.063 272.011L292 271.039" stroke="#073C7A"/>
<path d="M124.13 189.619L98.9555 223.939L91.0479 225.643L116.801 244.803L167.311 196.678" fill="#F9FAFD"/>
<path d="M182.389 197.828C182.389 197.828 180.64 244.472 180.797 266.93L175.606 272.261H208.231L214.619 203.603" fill="#DADFE6"/>
<path d="M208.014 28.1944V34.1241C208.014 38.7091 204.905 42.7018 200.482 43.7962L191.11 46.1154V22.9316L198.903 21.0032C201.097 20.4601 203.418 20.9629 205.196 22.3666C206.975 23.7703 208.014 25.9192 208.014 28.1944L208.014 28.1944Z" fill="#F9FAFD"/>
<path d="M208.014 34.124C208.014 38.7091 204.905 42.7017 200.482 43.7961L191.11 46.1153" stroke="#073C7A"/>
<path d="M198.465 32.9477C198.715 32.9477 198.917 32.7439 198.917 32.4924C198.917 32.241 198.715 32.0371 198.465 32.0371C198.216 32.0371 198.013 32.241 198.013 32.4924C198.013 32.7439 198.216 32.9477 198.465 32.9477Z" fill="black"/>
<path d="M205.407 32.9477C205.657 32.9477 205.859 32.7439 205.859 32.4924C205.859 32.241 205.657 32.0371 205.407 32.0371C205.157 32.0371 204.955 32.241 204.955 32.4924C204.955 32.7439 205.157 32.9477 205.407 32.9477Z" fill="black"/>
<path d="M203.371 35.206V28.1934H206.86" stroke="#073C7A"/>
<path d="M197.613 28.1934H201.103" stroke="#073C7A"/>
<path d="M192.223 31.7867V34.222C190.918 34.222 189.86 33.1571 189.86 31.8435C189.86 31.7705 189.864 31.6983 189.87 31.627C190.002 30.15 192.223 30.3037 192.223 31.7867Z" fill="#EDEEEF"/>
<path d="M192.223 34.2223C190.918 34.2223 189.86 33.1574 189.86 31.8438" stroke="#073C7A"/>
<path d="M201.462 36.0254C200.851 36.6397 199.861 36.6397 199.25 36.0254" stroke="#FF6498" stroke-width="1.5" stroke-linecap="round" stroke-linejoin="round"/>
<path d="M203.37 35.2119L201.844 35.589" stroke="#073C7A" stroke-linecap="round"/>
<path d="M192.223 30.5937C192.223 30.5937 202.861 31.5346 205.859 24.8506C205.859 24.8506 206.321 28.5402 208.013 29.1284" stroke="#073C7A"/>
<path d="M208.014 32.4923C208.014 32.4923 212.84 26.3485 208.485 20.1457C204.13 13.9429 194.889 16.8304 194.889 16.8304C194.889 16.8304 184.373 21.2113 169.183 20.7855C163.075 20.6142 159.99 22.4605 158.484 24.7293C155.774 28.732 151.781 31.6761 147.174 33.069C144.084 34.038 141.849 36.0543 143.265 40.1196C146.664 49.8764 184.692 45.0639 191.702 41.1069" stroke="#073C7A"/>
<path d="M223.583 70.7166V107.88L171.292 120.82V79.4298C171.292 64.7537 181.244 51.9738 195.4 48.4709H195.4C202.188 46.791 209.367 48.3462 214.868 52.6886C220.37 57.031 223.583 63.6785 223.583 70.7166L223.583 70.7166Z" fill="#F9FAFD"/>
<path d="M223.583 107.879L171.292 120.819L120.002 189.619L214.619 220.016C214.619 220.016 227.103 137.542 223.583 107.879Z" fill="#4890F0"/>
<path d="M120.002 189.619L214.619 220.016" stroke="#073C7A"/>
<path d="M223.583 107.879L171.292 120.819" stroke="#073C7A"/>
<path d="M183.72 54.1064L160.502 74.9471C160.502 74.9471 122.764 46.5613 105.344 49.128V52.1044L111.08 56.1864C111.08 56.1864 110.018 64.5281 118.515 65.8114C118.515 65.8114 141.126 112.439 171.293 97.8949" stroke="#073C7A"/>
<path d="M214.037 52.0645C214.037 52.0645 248.318 80.9973 230.898 106.878C213.477 132.759 175.025 96.1835 175.025 96.1835C175.025 96.1835 167.802 93.6168 168.864 87.8418L164.19 82.9223L166.74 79.2862L211.778 91.2641L203.37 80.9973" stroke="#073C7A"/>
<path d="M178.107 98.9014C177.571 106.098 183.843 114.442 193.77 118.895C204.927 123.899 216.629 122.161 220.591 115.11C205.522 120.164 185.649 105.254 178.107 98.9014Z" fill="#2C5B9A"/>
<path d="M116.8 244.803L167.31 196.678" stroke="#073C7A"/>
<path d="M19.8292 118.393C10.5916 118.376 3.08968 125.902 3.07324 135.203L36.5258 135.263C36.5422 125.962 29.0669 118.409 19.8292 118.393Z" fill="#F5F8FC"/>
<path d="M54.6737 125.694C49.407 125.685 45.13 129.976 45.1206 135.278L64.1928 135.312C64.2022 130.01 59.9403 125.704 54.6737 125.694Z" fill="#F5F8FC"/>
<path d="M36.5571 117.652C26.8972 117.635 19.0523 125.505 19.0352 135.231L54.017 135.294C54.0341 125.568 46.2171 117.67 36.5571 117.652Z" fill="#F5F8FC"/>
<path d="M0 135.197L68.7559 135.32" stroke="#073C7A"/>
<path d="M126.123 105.796C132.885 105.784 138.376 111.293 138.388 118.101L113.901 118.145C113.889 111.337 119.361 105.808 126.123 105.796Z" fill="#F5F8FC"/>
<path d="M100.617 111.141C104.473 111.134 107.603 114.275 107.61 118.156L93.6494 118.181C93.6426 114.3 96.7622 111.148 100.617 111.141Z" fill="#F5F8FC"/>
<path d="M113.879 105.254C120.95 105.241 126.692 111.002 126.705 118.121L101.098 118.167C101.086 111.048 106.808 105.267 113.879 105.254Z" fill="#F5F8FC"/>
<path d="M140.638 118.097L90.3086 118.187" stroke="#073C7A"/>
<path d="M121.81 271.91C121.81 271.91 124.2 267.688 118.133 266.77C114.528 266.213 110.839 266.658 107.47 268.055C107.47 268.055 111.698 262.914 105.079 260.711C98.4606 258.509 91.658 263.649 91.658 263.649C91.658 263.649 98.2768 251.349 93.1288 250.431C87.9809 249.513 85.223 254.837 85.223 254.837C85.223 254.837 85.7746 239.6 75.111 239.233C64.4473 238.865 65.5505 258.692 65.5505 258.692C65.5505 258.692 60.9541 249.88 53.2322 249.513C45.5102 249.146 49.3712 264.274 49.3712 264.274C49.3712 264.274 47.9003 260.711 42.7524 260.344C37.6044 259.977 37.9721 264.285 37.9721 264.285C37.9721 264.285 31.3533 255.02 23.9991 255.571C16.6449 256.122 19.7704 265.301 19.7704 265.301C12.2323 264.75 10.5776 273 10.5776 273H127.142L121.81 271.91Z" fill="#073C7A"/>
</svg>
