<svg width="336" height="221" viewBox="0 0 336 221" fill="none" xmlns="http://www.w3.org/2000/svg">
<path d="M86.004 134.492C86.004 134.492 105.379 205.873 18.6876 164.73L9 168.2L18.6876 142.18L53.9604 149.859" fill="#CAE4FB"/>
<path d="M82.1134 96.1183L48.8047 91.1143V128.296V220.001H75.8194L72.9631 214.893L82.1134 96.1183Z" fill="#E3F0FC"/>
<path d="M75.8197 220L72.9634 214.893L82.1137 96.1182" stroke="#073C7A" stroke-linecap="round" stroke-linejoin="round"/>
<path d="M48.8051 128.296V220" stroke="#073C7A" stroke-linecap="round" stroke-linejoin="round"/>
<path d="M47.9246 103.707L37.1204 138.101C37.1204 138.101 64.9887 145.537 88.6853 140.332V84.9404L47.9246 103.707Z" fill="#FE7277"/>
<path d="M37.1204 138.101C37.1204 138.101 64.9887 145.536 88.6853 140.331" stroke="#3C010C" stroke-linecap="round" stroke-linejoin="round"/>
<path d="M79.4201 32.1524V36.7331C79.4201 40.2751 76.9966 43.3595 73.5493 44.2049L66.2437 45.9965V28.0868L72.3183 26.597C74.0289 26.1775 75.8378 26.5659 77.2241 27.6503C78.6103 28.7347 79.4201 30.3948 79.4201 32.1524V32.1524Z" fill="#EDEEEF"/>
<path d="M79.4201 36.7334C79.4201 40.2754 76.9966 43.3598 73.5493 44.2052L66.2437 45.9968" stroke="#073C7A" stroke-linecap="round" stroke-linejoin="round"/>
<path d="M71.9768 35.8241C72.1714 35.8241 72.3291 35.6668 72.3291 35.4726C72.3291 35.2785 72.1714 35.1211 71.9768 35.1211C71.7822 35.1211 71.6245 35.2785 71.6245 35.4726C71.6245 35.6668 71.7822 35.8241 71.9768 35.8241Z" fill="#073C7A"/>
<path d="M77.3882 35.8241C77.5828 35.8241 77.7405 35.6668 77.7405 35.4726C77.7405 35.2785 77.5828 35.1211 77.3882 35.1211C77.1936 35.1211 77.0359 35.2785 77.0359 35.4726C77.0359 35.6668 77.1936 35.8241 77.3882 35.8241Z" fill="#073C7A"/>
<path d="M75.8005 37.5698V32.1523H78.5205" stroke="#073C7A" stroke-linecap="round" stroke-linejoin="round"/>
<path d="M71.3132 32.1519H74.0332" stroke="#073C7A" stroke-linecap="round" stroke-linejoin="round"/>
<path d="M67.1113 34.9284V36.8097C66.0943 36.8097 65.2698 35.987 65.2698 34.9722C65.2698 34.9159 65.2723 34.8601 65.2773 34.805C65.3805 33.664 67.1113 33.7828 67.1113 34.9284Z" fill="#EDEEEF"/>
<path d="M67.1113 36.8091C66.0943 36.8091 65.2698 35.9865 65.2698 34.9717" stroke="#073C7A" stroke-linecap="round" stroke-linejoin="round"/>
<path d="M74.3136 38.2031C74.0849 38.4307 73.7748 38.5585 73.4514 38.5585C73.128 38.5585 72.8178 38.4307 72.5891 38.2031" stroke="#FF6498" stroke-linecap="round" stroke-linejoin="round"/>
<path d="M75.8005 37.5742L74.6108 37.8652" stroke="#073C7A" stroke-linecap="round" stroke-linejoin="round"/>
<path d="M88.6854 65.0014V93.7105L47.9248 103.707V71.7325C47.9248 60.395 55.682 50.5223 66.7163 47.8163H66.7163C72.008 46.5186 77.6038 47.72 81.8921 51.0745C86.1805 54.4291 88.6854 59.5643 88.6854 65.0014V65.0014Z" fill="#E3F0FC"/>
<path d="M67.1116 34.5269C67.1116 34.5269 69.2674 33.205 69.3502 30.8091C69.3502 30.8091 74.7928 25.9408 78.9439 29.8621" stroke="#073C7A" stroke-linecap="round" stroke-linejoin="round"/>
<path d="M79.4203 34.0064C79.4203 34.0064 84.0119 26.0173 74.6111 23.5388C65.2103 21.0603 50.9427 34.279 66.1909 42.7058" stroke="#073C7A" stroke-linecap="round" stroke-linejoin="round"/>
<path d="M58.7104 36.917C58.7104 36.917 59.8919 41.3077 62.7469 42.1073" stroke="#FE7277" stroke-linecap="round" stroke-linejoin="round"/>
<path d="M57.5925 38.5586C57.5925 38.5586 47.7186 45.3285 51.072 54.375C54.4254 63.4215 70.1045 63.4835 71.1763 56.7916C72.2481 50.0996 69.1202 46.244 65.27 45.7623C61.4198 45.2806 61.8157 42.7055 61.8157 42.7055" stroke="#073C7A" stroke-linecap="round" stroke-linejoin="round"/>
<path d="M50.6719 60.4395C50.6719 60.4395 41.6702 76.7435 50.6719 89.6316C59.6736 102.52 88.6852 99.7934 101.405 81.37L108.029 76.7435V73.6041L99.6573 73.8825C99.6573 73.8825 96.6438 71.5354 93.3318 75.5009C93.3318 75.5009 74.8521 81.4526 68.5179 80.3373L66.3804 66.086" stroke="#073C7A" stroke-linecap="round" stroke-linejoin="round"/>
<path d="M50.6719 89.6315C50.5642 89.4773 50.4614 89.3222 50.3588 89.167C49.8263 89.9963 49.5373 90.9578 49.5247 91.9427C49.5247 97.2458 58.291 101.545 69.1049 101.545C79.4253 101.545 87.8746 97.6284 88.6249 92.6614C74.789 100.145 57.3024 99.1248 50.6719 89.6315Z" fill="#073C7A"/>
<path d="M85.0017 54.1957L95.6917 67.0773L110.099 48.9843C110.099 48.9843 112.335 42.7601 115.812 45.9961H124.009L124.589 48.5712L119.124 52.3715C119.124 52.3715 117.219 91.7508 96.0226 87.4691" stroke="#073C7A" stroke-linecap="round" stroke-linejoin="round"/>
<path d="M239.182 191.84C239.551 191.84 239.85 191.541 239.85 191.174C239.85 190.806 239.551 190.508 239.182 190.508C238.814 190.508 238.515 190.806 238.515 191.174C238.515 191.541 238.814 191.84 239.182 191.84Z" fill="black"/>
<path d="M263.044 143.652C263.412 143.652 263.711 143.354 263.711 142.986C263.711 142.618 263.412 142.32 263.044 142.32C262.675 142.32 262.376 142.618 262.376 142.986C262.376 143.354 262.675 143.652 263.044 143.652Z" fill="black"/>
<path d="M152.12 37.6924C162.552 37.6924 171.008 29.2547 171.008 18.8462C171.008 8.43773 162.552 0 152.12 0C141.689 0 133.232 8.43773 133.232 18.8462C133.232 29.2547 141.689 37.6924 152.12 37.6924Z" fill="#FEEFEF"/>
<rect x="146.224" width="5.35773" height="37.6924" fill="#EDEEEF"/>
<path d="M146.225 37.6924C156.656 37.6924 165.113 29.2547 165.113 18.8462C165.113 8.43773 156.656 0 146.225 0C135.793 0 127.336 8.43773 127.336 18.8462C127.336 29.2547 135.793 37.6924 146.225 37.6924Z" fill="#FE7277"/>
<path d="M138 21.4218H140.946C141.89 25.9315 145.491 28 149.621 28C150.439 28 151.534 27.9229 152 27.7559V26.1756C151.496 26.3169 150.439 26.3812 149.621 26.3812C146.335 26.3812 143.603 24.8266 142.746 21.4218H149.772V20.2141H142.532C142.495 19.8415 142.469 19.4433 142.469 19.0321V19.0064C142.469 18.5953 142.495 18.197 142.532 17.8116H149.772V16.591H142.746C143.603 13.1863 146.335 11.6188 149.621 11.6188C150.439 11.6188 151.496 11.6959 152 11.8244V10.2441C151.522 10.0899 150.439 10 149.621 10C145.491 10 141.865 12.0685 140.933 16.591H138V17.8116H140.757C140.732 18.1842 140.707 18.5824 140.707 18.9807V19.0064C140.707 19.4176 140.732 19.8287 140.77 20.2141H138V21.4218Z" fill="#F9FAFD"/>
<rect x="183.155" y="97.3945" width="37.0596" height="7.69063" fill="#FFCDCF"/>
<path fill-rule="evenodd" clip-rule="evenodd" d="M220.214 97.3945V105.085H183.155" fill="#FFCDCF"/>
<path d="M220.214 97.3945V105.085H183.155" stroke="#3C010C"/>
<rect x="183.155" y="87.7305" width="37.0596" height="7.69063" fill="#FFCDCF"/>
<path d="M220.214 87.7305V95.421H183.155" stroke="#3C010C"/>
<rect x="183.155" y="78.0654" width="37.0596" height="7.69063" fill="#FFCDCF"/>
<path d="M220.214 78.0654V85.756H183.155" stroke="#3C010C"/>
<rect x="183.155" y="68.4014" width="37.0596" height="7.69063" fill="#FFCDCF"/>
<path d="M220.214 68.4014V76.0919H183.155" stroke="#3C010C"/>
<rect x="183.155" y="58.7363" width="37.0596" height="7.69063" fill="#FFCDCF"/>
<path d="M220.214 58.7363V66.4269H183.155" stroke="#3C010C"/>
<rect x="183.155" y="49.0723" width="37.0596" height="7.69063" fill="#FFCDCF"/>
<path d="M220.214 49.0723V56.7628H183.155" stroke="#3C010C"/>
<rect x="183.155" y="39.4072" width="37.0596" height="7.69063" fill="#FFCDCF"/>
<path d="M220.214 39.4072V47.0981H183.155" stroke="#3C010C"/>
<rect x="183.155" y="29.7432" width="37.0596" height="7.69063" fill="#FFCDCF"/>
<path d="M220.214 29.7432V37.434H183.155" stroke="#3C010C"/>
<rect x="183.155" y="20.0781" width="37.0596" height="7.69063" fill="#FFCDCF"/>
<path d="M220.214 20.0781V27.7687H183.155" stroke="#3C010C"/>
<rect x="141.886" y="97.3945" width="37.0596" height="7.69063" fill="#FFCDCF"/>
<path d="M178.945 97.3945V105.085H141.886" stroke="#3C010C"/>
<rect x="141.886" y="87.7305" width="37.0596" height="7.69063" fill="#FFCDCF"/>
<path d="M178.945 87.7305V95.421H141.886" stroke="#3C010C"/>
<rect x="141.886" y="78.0654" width="37.0596" height="7.69063" fill="#FFCDCF"/>
<path d="M178.945 78.0654V85.756H141.886" stroke="#3C010C"/>
<rect x="141.886" y="68.4014" width="37.0596" height="7.69063" fill="#FFCDCF"/>
<path d="M178.945 68.4014V76.0919H141.886" stroke="#3C010C"/>
<rect x="141.886" y="58.7363" width="37.0596" height="7.69063" fill="#FFCDCF"/>
<path d="M178.945 58.7363V66.4269H141.886" stroke="#3C010C"/>
<rect x="141.886" y="49.0723" width="37.0596" height="7.69063" fill="#FFCDCF"/>
<path d="M178.945 49.0723V56.7628H141.886" stroke="#3C010C"/>
<path d="M274.816 87.1133C274.816 87.1133 241.146 147.43 229.879 207.102L225.726 209.656L245.584 216.533C245.584 216.533 289.573 147.178 292.202 138.374C294.831 129.569 290.324 87.1133 290.324 87.1133" fill="#4890F0"/>
<path d="M283.536 114.396C283.536 114.396 278.133 143.353 279.613 161.434C285.281 151.903 289.885 143.809 291.601 139.924L283.536 114.396Z" fill="#073C7A"/>
<path d="M284.558 22.1061V33.3133L297.84 36.7258V17.8126L284.558 14.4004V22.1061Z" fill="#EDEEEF"/>
<path d="M292.06 25.9837C292.257 25.9837 292.416 25.8175 292.416 25.6124C292.416 25.4074 292.257 25.2412 292.06 25.2412C291.864 25.2412 291.705 25.4074 291.705 25.6124C291.705 25.8175 291.864 25.9837 292.06 25.9837Z" fill="#073C7A" stroke="#073C7A"/>
<path d="M286.606 25.9837C286.802 25.9837 286.961 25.8175 286.961 25.6124C286.961 25.4074 286.802 25.2412 286.606 25.2412C286.41 25.2412 286.251 25.4074 286.251 25.6124C286.251 25.8175 286.41 25.9837 286.606 25.9837Z" fill="#073C7A" stroke="#073C7A"/>
<path d="M288.206 27.8272V22.1064H285.465" stroke="#073C7A" stroke-linecap="round" stroke-linejoin="round"/>
<path d="M292.73 22.1061H289.988" stroke="#073C7A" stroke-linecap="round" stroke-linejoin="round"/>
<path d="M296.965 25.0377V27.0243C297.99 27.0243 298.821 26.1556 298.821 25.084C298.821 25.0244 298.819 24.9655 298.814 24.9073C298.71 23.7024 296.965 23.8279 296.965 25.0377Z" fill="#EDEEEF"/>
<path fill-rule="evenodd" clip-rule="evenodd" d="M296.965 27.0244C297.99 27.0244 298.821 26.1556 298.821 25.084L296.965 27.0244Z" fill="#073C7A"/>
<path d="M296.965 27.0244C297.99 27.0244 298.821 26.1556 298.821 25.084" stroke="#073C7A" stroke-linecap="round" stroke-linejoin="round"/>
<path d="M295.36 36.0889L297.84 36.726" stroke="#073C7A" stroke-linecap="round" stroke-linejoin="round"/>
<path d="M288.206 27.832L289.405 28.1393" stroke="black" stroke-width="0.886251" stroke-linecap="round" stroke-linejoin="round"/>
<path d="M284.558 25.2412C284.558 25.2412 281.891 33.413 285.464 36.0888C289.037 38.7646 299.662 37.2056 296.78 26.2386" stroke="#073C7A" stroke-linecap="round" stroke-linejoin="round"/>
<path d="M286.135 27.9781C286.035 28.1451 286.026 28.355 286.112 28.5306C286.198 28.7062 286.366 28.8217 286.554 28.8344C287.322 29.0137 288.483 27.4334 289.488 28.2937C289.488 28.2937 289.713 27.0795 292.215 27.8058C294.716 28.532 293.857 26.8057 293.857 26.8057" stroke="#073C7A" stroke-linecap="round" stroke-linejoin="round"/>
<path d="M289 29.9635C289.943 30.4167 291.058 29.9854 291.492 29" stroke="#FF6498" stroke-linecap="round" stroke-linejoin="round"/>
<path d="M283.602 18.1582C283.602 18.1582 284.502 22.207 292.73 19.8016C292.73 19.8016 293.227 22.0066 294.643 22.1068C296.059 22.207 296 23.6872 296 23.6872" stroke="#073C7A" stroke-linecap="round" stroke-linejoin="round"/>
<path d="M284.558 22.1064C284.558 22.1064 275.97 14.3626 286.056 13.97C296.143 13.5774 301.604 16.8468 297.893 24.0674" stroke="#073C7A" stroke-linecap="round" stroke-linejoin="round"/>
<path d="M274.816 56.7956V87.1131L315.904 97.6692V63.9038C315.904 51.9311 308.084 41.5053 296.962 38.6477H296.962C291.627 37.2773 285.987 38.546 281.664 42.0885C277.341 45.631 274.816 51.0539 274.816 56.7956V56.7956Z" fill="#E3F0FC"/>
<path d="M315.904 97.669L283.602 89.3701C283.602 89.3701 281.428 171.451 294.182 216.029L292.061 220.478H313.234C313.234 220.478 317.447 115.627 315.904 97.669Z" fill="#4890F0"/>
<path d="M283.602 89.3701C283.602 89.3701 281.428 171.451 294.182 216.029" stroke="#073C7A" stroke-linecap="round" stroke-linejoin="round"/>
<path d="M303.021 41.1182C303.021 41.1182 327.734 56.3709 326.983 81.7592C326.232 107.147 308.704 117.355 308.704 117.355" stroke="#073C7A" stroke-linecap="round" stroke-linejoin="round"/>
<path d="M302.195 103.353C302.195 103.353 305.825 117.224 311.96 120.104" stroke="black" stroke-width="0.886251" stroke-linecap="round" stroke-linejoin="round"/>
<path d="M298.821 66.7529L311.96 83.5039L302.524 104.5" stroke="#073C7A" stroke-linecap="round" stroke-linejoin="round"/>
<path d="M303.356 102.648L311.96 83.5037L301.884 70.6582C301.884 70.6582 308.023 89.8604 303.356 102.648Z" fill="#2C5B9A" stroke="#073C7A"/>
<path d="M279.356 44.3498L261.748 58.927C261.748 58.927 241.451 31.8936 236.967 30.4592C232.483 29.0249 227.023 32.0296 227.023 32.0296V33.8049L232.216 34.7918C232.216 34.7918 231.451 41.1089 234.755 44.0694C234.755 44.0694 244.999 83.2066 260.379 83.3296C270.895 83.4138 274.816 80.3633 274.816 80.3633" stroke="#073C7A" stroke-linecap="round" stroke-linejoin="round"/>
<path d="M1 220.5H335" stroke="#073C7A" stroke-linecap="round" stroke-linejoin="round"/>
<path d="M136.754 197.627C136.754 197.627 131.176 190.933 134.077 187.14C136.977 183.347 140.324 187.14 140.324 187.14C140.324 187.14 135.192 177.323 146.125 175.538C157.058 173.753 159.959 187.809 159.959 187.809C159.959 187.809 162.86 180.669 167.992 182.901C173.124 185.132 170.669 190.536 170.669 190.536C170.669 190.536 172.008 187.14 174.239 188.033C176.47 188.925 175.132 192.049 175.132 192.049C175.132 192.049 177.14 189.593 176.694 193.833" fill="#A0DE78"/>
<path d="M128 199.411C127.993 207.681 131.782 215.495 138.279 220.611H171.72C179.775 214.25 183.532 203.877 181.421 193.833H128.578C128.193 195.667 127.999 197.537 128 199.411Z" fill="#073C7A"/>
</svg>
