<svg width="292" height="283" viewBox="0 0 292 283" fill="none" xmlns="http://www.w3.org/2000/svg">
<path d="M83.862 149.336C47.2893 149.336 17.6413 119.653 17.6413 83.0362C17.6413 46.4198 47.2893 16.7363 83.862 16.7363C120.435 16.7363 150.083 46.4198 150.083 83.0362C150.083 119.653 120.435 149.336 83.862 149.336Z" fill="#F5F8FC"/>
<path fill-rule="evenodd" clip-rule="evenodd" d="M83.862 149.336C47.2893 149.336 17.6413 119.653 17.6413 83.0362C17.6413 46.4198 47.2893 16.7363 83.862 16.7363C120.435 16.7363 150.083 46.4198 150.083 83.0362C150.083 119.653 120.435 149.336 83.862 149.336Z" fill="#FFFAE0" stroke="#3C010C"/>
<rect width="48.1459" height="166.072" transform="matrix(-1 0 0 1 107.935 0)" fill="#FFFAE0"/>
<path d="M167.724 62.3906L143.651 20.6453L-7.00793e-06 103.682L24.0729 145.427L167.724 62.3906Z" fill="#FFFAE0"/>
<path d="M143.652 145.427L167.725 103.681L24.0732 20.6452L0.000298734 62.3905L143.652 145.427Z" fill="#FFFAE0"/>
<path d="M83.863 99.6109C74.7198 99.6109 67.3078 92.19 67.3078 83.0359C67.3078 73.8818 74.7198 66.4609 83.863 66.4609C93.0061 66.4609 100.418 73.8818 100.418 83.0359C100.418 92.19 93.0061 99.6109 83.863 99.6109Z" fill="#FE7277"/>
<path d="M100.418 83.0359C100.418 73.8818 93.0056 66.4609 83.8624 66.4609" stroke="#392504"/>
<path d="M136.875 268.627C142.582 208.895 178.015 120.516 178.015 120.516L208.988 101.377L205.565 149.163L200.949 194.775L161.777 283L125.981 271.744L136.875 268.627Z" fill="#DADFE6"/>
<path d="M187.244 108.821C187.244 108.821 180.262 222.919 199.983 276.941L195.863 283H230.939C230.939 283 234.771 137.874 234.771 106.55L187.244 108.821Z" fill="#F9FAFD"/>
<path d="M199.696 20.541V35.3691L218.043 39.8839V14.8605L199.696 10.3457V20.541Z" fill="#F9FAFD"/>
<path d="M210.06 25.6718C209.789 25.6718 209.57 25.4519 209.57 25.1806C209.57 24.9094 209.789 24.6895 210.06 24.6895C210.331 24.6895 210.551 24.9094 210.551 25.1806C210.551 25.4519 210.331 25.6718 210.06 25.6718Z" fill="#073C7A"/>
<path d="M202.525 25.6718C202.254 25.6718 202.034 25.4519 202.034 25.1806C202.034 24.9094 202.254 24.6895 202.525 24.6895C202.796 24.6895 203.016 24.9094 203.016 25.1806C203.016 25.4519 202.796 25.6718 202.525 25.6718Z" fill="#073C7A"/>
<path d="M204.736 28.1101V20.541H200.949" stroke="#073C7A"/>
<path d="M210.985 20.5416H207.197" stroke="#073C7A"/>
<path d="M200.359 19.3024H200.359" stroke="black" stroke-width="1.5"/>
<path d="M216.835 24.4195V27.0479C218.251 27.0479 219.399 25.8985 219.399 24.4807C219.399 24.4019 219.395 24.324 219.389 24.247C219.245 22.6528 216.835 22.8188 216.835 24.4195Z" fill="#F9FAFD"/>
<path d="M216.835 27.0477C218.251 27.0477 219.399 25.8983 219.399 24.4805" stroke="#073C7A"/>
<path d="M206.393 29.9763C207.826 29.9763 208.988 28.813 208.988 27.3779" stroke="#FF6498" stroke-width="1.5" stroke-linecap="round" stroke-linejoin="round"/>
<path d="M199.696 35.3691L218.043 39.8839" stroke="#073C7A"/>
<path d="M204.735 28.1161L206.392 28.5237" stroke="#073C7A" stroke-linecap="round"/>
<path d="M199.073 14.1055C199.073 14.1055 203.642 17.5107 212.751 16.4718C212.751 16.4718 212.751 22.4845 215.979 24.3262" stroke="#073C7A"/>
<path d="M199.073 21.8387C199.073 21.8387 191.633 12.1426 202.393 9.42993C213.154 6.71731 218.112 12.0271 218.112 12.0271C218.112 12.0271 228.291 13.7009 217.494 32.3429" stroke="#073C7A"/>
<path d="M234.771 66.4375V106.549L178.015 120.516V75.8421C178.015 60.0015 188.816 46.2075 204.18 42.4267H204.18C211.548 40.6136 219.34 42.2922 225.311 46.9791C231.283 51.666 234.771 58.8409 234.771 66.4375V66.4375Z" fill="#4890F0"/>
<path d="M187.244 108.82C187.244 108.82 180.262 222.919 199.983 276.94" stroke="#073C7A"/>
<path d="M228.812 50.3262C228.812 50.3262 259.734 91.3998 247.026 115.627C234.317 139.853 173.008 103.391 172.316 96.9268C171.624 90.4627 186.044 93.9256 186.044 93.9256C186.044 93.9256 184.306 82.1517 191.685 93.6948L219.399 96.696L210.407 74.995" stroke="#073C7A"/>
<path d="M216.383 89.416L219.399 96.6954L198.624 94.4456C203.453 91.9115 209.574 90.1244 216.383 89.416Z" fill="#2C5B9A"/>
<path d="M234.598 123.583C234.551 126.682 234.495 130.025 234.432 133.572C219.791 133.452 200.752 125.524 192.159 117.035L192.155 117.036C192.046 116.928 191.941 116.819 191.835 116.711C191.807 116.682 191.778 116.653 191.75 116.624C191.605 116.475 191.465 116.326 191.327 116.177C191.302 116.15 191.277 116.123 191.252 116.097C191.113 115.945 190.979 115.793 190.847 115.642C190.826 115.617 190.804 115.593 190.783 115.568C190.65 115.414 190.521 115.26 190.396 115.105C190.378 115.084 190.36 115.062 190.342 115.04C190.215 114.882 190.092 114.724 189.974 114.566C189.96 114.548 189.946 114.53 189.933 114.513C189.812 114.351 189.695 114.19 189.583 114.028C189.573 114.014 189.563 114 189.553 113.985C189.439 113.821 189.33 113.656 189.226 113.492C189.219 113.481 189.211 113.47 189.204 113.459C189.098 113.291 188.997 113.123 188.901 112.956L188.888 112.934C188.79 112.764 188.698 112.593 188.611 112.423L188.604 112.41C188.515 112.237 188.433 112.065 188.355 111.892L188.353 111.888C187.95 111.021 187.699 110.09 187.613 109.138C201.267 117.103 221.126 125.403 234.598 123.583Z" fill="#2C5B9A"/>
<path d="M194.522 94.0016L194.065 92.6007C192.956 89.2078 190.059 86.711 186.543 86.1192L167.501 82.9138C164.424 82.3959 161.384 84.0103 160.086 86.8507V86.8507C160.023 86.9876 159.878 87.0666 159.729 87.0444L119.973 81.1078L119.471 79.4019C119.263 78.692 118.569 78.2399 117.836 78.3361L109.788 79.3928C109.085 79.4851 108.559 80.0849 108.559 80.7948V81.7656C108.559 82.3466 108.914 82.8684 109.454 83.0813L116.237 85.7551C117.156 86.1174 118.204 85.8378 118.821 85.0655L119.627 84.0559L159.414 90.9535C159.516 90.9713 159.605 91.0357 159.654 91.1278L159.804 91.4099C162.392 96.2806 167.059 99.7021 172.478 100.702L176.136 101.376" stroke="#073C7A"/>
<path d="M196.567 45.2891C196.567 45.2891 180.329 52.1971 156.463 86.095" stroke="#073C7A"/>
<path d="M178.015 110.086C178.015 110.086 150.411 119.782 142.801 112.626C135.192 105.469 132.886 86.0957 132.886 86.0957" stroke="#073C7A"/>
<path d="M132.886 83.036C132.886 83.036 131.214 66.395 131.387 61.5469C131.387 61.5469 128.529 63.1052 125.981 62.2395C125.981 62.2395 124.297 65.0098 123.086 64.8367C121.875 64.6636 122.394 58.9497 127.064 53.0628C131.733 47.1758 152.533 47.2139 158.649 83.036" stroke="#073C7A"/>
<path d="M225.949 243.612C227.459 239.378 231.884 244.97 231.884 244.97C231.884 244.97 226.553 233.633 231.884 231.062C234.513 229.794 235.897 231.286 236.624 233.123C233.897 216.638 233.309 184.843 244.317 183.735C256.342 182.526 252.227 213.069 252.227 213.069C252.227 213.069 255.55 204.299 259.778 208.23C264.007 212.162 255.852 237.866 255.852 237.866C256.758 235.145 261.591 233.028 263.403 237.866C265.215 242.705 258.268 252.987 258.268 252.987L234.407 256.918C234.407 256.918 224.439 247.846 225.949 243.612Z" fill="#A0DE78"/>
<path d="M227.724 282.321H261.892L269.448 251.752H220.169L227.724 282.321Z" fill="#FF7A7A"/>
<path d="M292 282.5H9.49424" stroke="#073C7A"/>
<path d="M269.449 251.752H220.169" stroke="black" stroke-width="1.5"/>
</svg>
